<svg width="40" height="40" viewBox="0 0 40 40" fill="none" xmlns="http://www.w3.org/2000/svg">
<rect y="15.25" width="9" height="9" rx="1" fill="#17008C"/>
<rect x="9" y="24.25" width="9" height="9" rx="1" fill="#17008C"/>
<path d="M18 15.25H27V23.25C27 23.8023 26.5523 24.25 26 24.25H19C18.4477 24.25 18 23.8023 18 23.25V15.25Z" fill="#17008C"/>
<path d="M18 7.25C18 6.69771 18.4477 6.25 19 6.25H26C26.5523 6.25 27 6.69771 27 7.25V15.25H18V7.25Z" fill="#17008C"/>
<rect x="30.5" y="24.25" width="9" height="9" rx="1" fill="#17008C"/>
<rect x="30.5" y="6.25" width="9" height="9" rx="1" fill="#17008C"/>
<path d="M8.5 21.75C8.5 22.75 9.1 24.75 11.5 24.75" stroke="#17008C"/>
<path d="M9.5 26.75C9.5 25.75 8.9 23.75 6.5 23.75" stroke="#17008C"/>
<path d="M15.5 24.75C16.5 24.75 18.5 24.15 18.5 21.75" stroke="#17008C"/>
<path d="M20.5 23.75C19.5 23.75 17.5 24.35 17.5 26.75" stroke="#17008C"/>
</svg>
