<svg width="12" height="12" viewBox="0 0 12 12" fill="none" xmlns="http://www.w3.org/2000/svg">
<path d="M1.33333 5.33333C0.966667 5.33333 0.652889 5.20289 0.392 4.942C0.131111 4.68111 0.000444444 4.36711 0 4V1.33333C0 0.966667 0.130667 0.652889 0.392 0.392C0.653333 0.131111 0.967111 0.000444444 1.33333 0H4C4.36667 0 4.68067 0.130667 4.942 0.392C5.20333 0.653333 5.33378 0.967111 5.33333 1.33333V4C5.33333 4.36667 5.20289 4.68067 4.942 4.942C4.68111 5.20333 4.36711 5.33378 4 5.33333H1.33333ZM1.33333 12C0.966667 12 0.652889 11.8696 0.392 11.6087C0.131111 11.3478 0.000444444 11.0338 0 10.6667V8C0 7.63333 0.130667 7.31956 0.392 7.05867C0.653333 6.79778 0.967111 6.66711 1.33333 6.66667H4C4.36667 6.66667 4.68067 6.79733 4.942 7.05867C5.20333 7.32 5.33378 7.63378 5.33333 8V10.6667C5.33333 11.0333 5.20289 11.3473 4.942 11.6087C4.68111 11.87 4.36711 12.0004 4 12H1.33333ZM8 5.33333C7.63333 5.33333 7.31956 5.20289 7.05867 4.942C6.79778 4.68111 6.66711 4.36711 6.66667 4V1.33333C6.66667 0.966667 6.79733 0.652889 7.05867 0.392C7.32 0.131111 7.63378 0.000444444 8 0H10.6667C11.0333 0 11.3473 0.130667 11.6087 0.392C11.87 0.653333 12.0004 0.967111 12 1.33333V4C12 4.36667 11.8696 4.68067 11.6087 4.942C11.3478 5.20333 11.0338 5.33378 10.6667 5.33333H8ZM8 12C7.63333 12 7.31956 11.8696 7.05867 11.6087C6.79778 11.3478 6.66711 11.0338 6.66667 10.6667V8C6.66667 7.63333 6.79733 7.31956 7.05867 7.05867C7.32 6.79778 7.63378 6.66711 8 6.66667H10.6667C11.0333 6.66667 11.3473 6.79733 11.6087 7.05867C11.87 7.32 12.0004 7.63378 12 8V10.6667C12 11.0333 11.8696 11.3473 11.6087 11.6087C11.3478 11.87 11.0338 12.0004 10.6667 12H8ZM1.33333 4H4V1.33333H1.33333V4ZM8 4H10.6667V1.33333H8V4ZM8 10.6667H10.6667V8H8V10.6667ZM1.33333 10.6667H4V8H1.33333V10.6667Z" fill="#363636"/>
</svg>
