<svg width="13" height="12" viewBox="0 0 13 12" fill="none" xmlns="http://www.w3.org/2000/svg">
<path d="M6.49993 0C5.04264 0 3.84761 1.12024 3.72715 2.54635C3.52083 2.49847 3.30973 2.47424 3.09793 2.47413C1.56095 2.47413 0.314575 3.72061 0.314575 5.2579C0.314575 6.40236 1.0058 7.38539 1.99331 7.81301C1.74393 8.23863 1.61274 8.72314 1.61332 9.21644C1.61332 10.7537 2.85943 12 4.39688 12C5.25392 12 6.02015 11.6123 6.53071 11.0031C7.04132 11.6123 7.80764 12 8.66459 12C10.2022 12 11.4483 10.7536 11.4483 9.21644C11.4483 8.71547 11.3153 8.24584 11.0837 7.83976C12.03 7.39523 12.6855 6.43391 12.6855 5.31934C12.6855 3.7821 11.4394 2.53558 9.90214 2.53558C9.6872 2.53558 9.47828 2.56083 9.27736 2.60691C9.18618 1.15209 7.97785 0 6.49993 0ZM3.55308 3.5403H9.01298C9.39741 3.5403 9.70988 3.85215 9.70988 4.23549V8.17682C9.70988 8.56021 9.39741 8.87175 9.01298 8.87175H7.15296L3.42107 10.7012L3.98848 8.87175H3.55308C3.16865 8.87175 2.85608 8.56021 2.85608 8.17682V4.23549C2.85608 3.8521 3.16865 3.5403 3.55308 3.5403Z" fill="#363636"/>
</svg>
