<svg width="13" height="12" viewBox="0 0 13 12" fill="none" xmlns="http://www.w3.org/2000/svg">
<path d="M0.861444 5.06024H1.58433C1.78915 5.06024 1.96096 5.12964 2.09976 5.26844C2.23855 5.40723 2.30771 5.5788 2.30723 5.78313C2.30674 5.98747 2.23735 6.15928 2.09903 6.29856C1.96072 6.43783 1.78915 6.50699 1.58433 6.50603H0.861444C0.656624 6.50603 0.485058 6.43663 0.346745 6.29783C0.208432 6.15904 0.139034 5.98747 0.138552 5.78313C0.13807 5.5788 0.207468 5.40723 0.346745 5.26844C0.486022 5.12964 0.657588 5.06024 0.861444 5.06024ZM2.09036 8.96386L2.59638 8.45783C2.74096 8.31325 2.90964 8.2441 3.10241 8.25036C3.29518 8.25663 3.46385 8.32578 3.60843 8.45783C3.75301 8.60241 3.82843 8.77422 3.8347 8.97325C3.84096 9.17229 3.77156 9.34386 3.6265 9.48795L3.12048 9.99398C2.9759 10.1386 2.80433 10.208 2.60578 10.2022C2.40723 10.1964 2.23542 10.121 2.09036 9.9759C1.95783 9.83133 1.88843 9.66265 1.88217 9.46988C1.8759 9.27711 1.9453 9.10843 2.09036 8.96386ZM2.59638 3.10844L2.09036 2.60241C1.94578 2.45783 1.87638 2.28916 1.88217 2.09639C1.88795 1.90362 1.95735 1.73494 2.09036 1.59036C2.23494 1.44579 2.40674 1.3706 2.60578 1.36482C2.80482 1.35904 2.97638 1.42819 3.12048 1.57229L3.6265 2.07832C3.77108 2.22289 3.84048 2.3947 3.8347 2.59374C3.82891 2.79277 3.75349 2.96434 3.60843 3.10844C3.46385 3.24097 3.29518 3.31036 3.10241 3.31663C2.90964 3.32289 2.74096 3.2535 2.59638 3.10844ZM11.1988 11.7831L8.27108 8.85542L7.72891 10.4819C7.70481 10.5663 7.65975 10.6296 7.59373 10.672C7.52771 10.7145 7.45831 10.7354 7.38554 10.7349C7.31277 10.7345 7.24337 10.7104 7.17735 10.6627C7.11132 10.6149 7.06626 10.5487 7.04216 10.4639L5.48795 5.29518C5.46385 5.1988 5.46698 5.10241 5.49735 5.00603C5.52771 4.90964 5.57277 4.83133 5.63253 4.77109C5.69229 4.71084 5.7706 4.66578 5.86747 4.6359C5.96433 4.60603 6.06072 4.60289 6.15662 4.62651L11.3614 6.18072C11.4458 6.20482 11.5092 6.25012 11.5516 6.31663C11.594 6.38313 11.6149 6.45229 11.6145 6.5241C11.614 6.5959 11.5959 6.6653 11.5602 6.73229C11.5246 6.79928 11.4643 6.84434 11.3795 6.86747L9.75301 7.44578L12.6446 10.3373C12.7891 10.4819 12.8614 10.6506 12.8614 10.8434C12.8614 11.0361 12.7891 11.2048 12.6446 11.3494L12.2108 11.7831C12.0663 11.9277 11.8976 12 11.7048 12C11.512 12 11.3434 11.9277 11.1988 11.7831ZM5.92168 1.44579V0.722894C5.92168 0.518075 5.99108 0.346509 6.12988 0.208195C6.26867 0.0698821 6.44024 0.00048442 6.64457 2.49273e-06C6.84891 -0.000479435 7.02072 0.0689182 7.16 0.208195C7.29927 0.347472 7.36843 0.519038 7.36747 0.722894V1.44579C7.36747 1.6506 7.29807 1.82241 7.15927 1.96121C7.02048 2.1 6.84891 2.16916 6.64457 2.16868C6.44024 2.16819 6.26867 2.0988 6.12988 1.96048C5.99108 1.82217 5.92168 1.6506 5.92168 1.44579ZM9.66265 2.07832L10.1867 1.55422C10.3193 1.42169 10.4851 1.35229 10.6841 1.34603C10.8831 1.33976 11.0547 1.40916 11.1988 1.55422C11.3313 1.68675 11.4007 1.85253 11.407 2.05157C11.4132 2.2506 11.3499 2.42217 11.2169 2.56627L10.6928 3.10844C10.5602 3.25301 10.3945 3.32241 10.1954 3.31663C9.99638 3.31084 9.82481 3.24145 9.68072 3.10844C9.53614 2.96386 9.46096 2.79229 9.45518 2.59374C9.44939 2.39518 9.51855 2.22338 9.66265 2.07832Z" fill="#363636"/>
</svg>
