<svg width="13" height="12" viewBox="0 0 13 12" fill="none" xmlns="http://www.w3.org/2000/svg">
<g clip-path="url(#clip0_30_147)">
<path d="M1.0625 0C0.751 0 0.5 0.251 0.5 0.5625V11.4375C0.5 11.749 0.751 12 1.0625 12H11.9375C12.249 12 12.5 11.749 12.5 11.4375V0.5625C12.5 0.251 12.249 0 11.9375 0H1.0625ZM9.744 4.875C10.05 4.875 10.321 4.8935 10.5575 4.9305C10.7806 4.96392 10.9995 5.02091 11.2105 5.1005V6.3295C11.1092 6.25944 11.0016 6.19901 10.889 6.149C10.7729 6.09677 10.6531 6.05331 10.5305 6.019C10.2983 5.9543 10.0585 5.92067 9.8175 5.919C9.6675 5.919 9.531 5.933 9.408 5.962C9.29837 5.98545 9.19321 6.0263 9.0965 6.083C9.0115 6.135 8.9465 6.1975 8.9 6.27C8.85323 6.34307 8.8289 6.42825 8.83 6.515C8.83 6.613 8.8565 6.7015 8.908 6.7795C8.96 6.8575 9.034 6.9315 9.1295 7.0015C9.225 7.0715 9.341 7.1395 9.4775 7.2065C9.614 7.274 9.7685 7.3435 9.9405 7.4145C10.1755 7.513 10.3865 7.618 10.5735 7.7285C10.7605 7.8395 10.921 7.965 11.055 8.105C11.189 8.2445 11.291 8.404 11.362 8.5835C11.433 8.763 11.469 8.9715 11.469 9.21C11.469 9.5385 11.4065 9.815 11.2825 10.038C11.1613 10.2579 10.9875 10.4443 10.7765 10.5805C10.5491 10.7247 10.297 10.8257 10.033 10.8785C9.75 10.9385 9.4515 10.9685 9.138 10.9685C8.82945 10.9699 8.52145 10.9424 8.218 10.8865C7.95546 10.8411 7.70084 10.7581 7.462 10.64V9.325C7.91389 9.70956 8.48713 9.92207 9.0805 9.925C9.247 9.925 9.3925 9.91 9.5165 9.88C9.641 9.85 9.7445 9.808 9.828 9.755C9.911 9.701 9.973 9.638 10.0145 9.565C10.0604 9.48001 10.0812 9.38376 10.0747 9.2874C10.0681 9.19104 10.0344 9.09851 9.9775 9.0205C9.90321 8.92219 9.81235 8.83759 9.709 8.7705C9.58083 8.68554 9.44587 8.61129 9.3055 8.5485C9.13912 8.47252 8.97126 8.39984 8.802 8.3305C8.343 8.139 8.001 7.9045 7.7755 7.628C7.5505 7.3515 7.4375 7.017 7.4375 6.6255C7.4375 6.3185 7.499 6.055 7.622 5.8345C7.745 5.614 7.912 5.4325 8.124 5.29C8.34823 5.14207 8.59717 5.03556 8.859 4.9755C9.14899 4.90713 9.44606 4.87339 9.744 4.875ZM2.1875 4.969H6.969V6.052H5.253V10.875H3.8945V6.052H2.1875V4.969Z" fill="#363636"/>
</g>
<defs>
<clipPath id="clip0_30_147">
<rect width="12" height="12" fill="white" transform="translate(0.5)"/>
</clipPath>
</defs>
</svg>
